<svg id="Layer_3" enable-background="new 0 0 64 64" height="512" viewBox="0 0 64 64" width="512" xmlns="http://www.w3.org/2000/svg"><path d="m62.707 9.707c.188-.187.293-.441.293-.707v-7c0-.553-.448-1-1-1h-7c-.265 0-.52.105-.707.293l-22.293 22.293-22.293-22.293c-.187-.188-.442-.293-.707-.293h-7c-.552 0-1 .447-1 1v7c0 .266.105.52.293.707l22.293 22.293-5.586 5.586-2.293-2.293c-.391-.391-1.023-.391-1.414 0l-4 4c-.391.391-.391 1.023 0 1.414l3.293 3.293-7.586 7.586-.293-.293c-.391-.391-1.023-.391-1.414 0l-3 3c-.391.391-.391 1.023 0 1.414l7 7c.195.195.451.293.707.293s.512-.098.707-.293l3-3c.391-.391.391-1.023 0-1.414l-.293-.293 7.586-7.586 3.293 3.293c.195.195.451.293.707.293s.512-.098.707-.293l4-4c.391-.391.391-1.023 0-1.414l-2.293-2.293 5.586-5.586 5.586 5.586-2.293 2.293c-.391.391-.391 1.023 0 1.414l4 4c.195.195.451.293.707.293s.512-.098.707-.293l3.293-3.293 7.586 7.586-.293.293c-.391.391-.391 1.023 0 1.414l3 3c.195.195.451.293.707.293s.512-.098.707-.293l7-7c.391-.391.391-1.023 0-1.414l-3-3c-.391-.391-1.023-.391-1.414 0l-.293.293-7.586-7.586 3.293-3.293c.391-.391.391-1.023 0-1.414l-4-4c-.391-.391-1.023-.391-1.414 0l-2.293 2.293-5.586-5.586zm-32.121 15.293-2.086 2.086-24.086-24.086h4.172zm-27.586-16.414v-4.172l24.086 24.086-2.086 2.086zm52.414-5.586h4.172l-38.086 38.086-2.086-2.086zm-43.414 45.414 3.586 3.586-1.586 1.586-3.586-3.586zm-3 12.172-5.586-5.586 1.586-1.586 5.586 5.586zm-1.586-7.586 1.586-1.586 3.586 3.586-1.586 1.586zm9.586-2.414-3.586-3.586 1.586-1.586 3.586 3.586zm7 1-11.586-11.586 2.586-2.586 11.586 11.586zm-1.086-9.086 38.086-38.086v4.172l-36 36zm10.5-3.5 2.086-2.086 5.586 5.586-2.086 2.086zm15 13 3.586-3.586 1.586 1.586-3.586 3.586zm12.172 3-5.586 5.586-1.586-1.586 5.586-5.586zm-7.586 1.586-1.586-1.586 3.586-3.586 1.586 1.586zm-2.414-9.586-3.586 3.586-1.586-1.586 3.586-3.586zm-1.586-9.586 2.586 2.586-11.586 11.586-2.586-2.586zm-4.414 1.586-2.086 2.086-5.586-5.586 2.086-2.086z"/></svg>