<svg id="_x33_0" enable-background="new 0 0 64 64" height="512" viewBox="0 0 64 64" width="512" xmlns="http://www.w3.org/2000/svg"><g><path d="m25 11c1.654 0 3-1.346 3-3s-1.346-3-3-3-3 1.346-3 3 1.346 3 3 3zm0-4c.552 0 1 .449 1 1s-.448 1-1 1-1-.449-1-1 .448-1 1-1z"/><path d="m63 27.414v-7.414h-7.414l-11.432 11.432c-1.461-.883-3.112-1.365-4.833-1.419l-3.785-2.523 2.484-2.032-.855-19.675c-.116-2.682-2.311-4.783-4.995-4.783h-14.34c-2.685 0-4.879 2.101-4.995 4.783l-.855 19.674 2.484 2.032-3.791 2.527c-5.362.176-9.673 4.58-9.673 9.984v3h2v9.956l-1.041.81c-.609.473-.959 1.187-.959 1.959 0 1.238.889 2.27 2.113 2.454l18.263 2.739c.848 1.296 2.283 2.082 3.86 2.082h3.764c1.512 0 2.814-.852 3.494-2.092l.506.506 2.052-2.052c-.023.232-.052.463-.052.7v2.938h14v-9.323c0-1.241-.853-2.278-2-2.58v-7.683zm-2-5.414v3.78l-3.15-.63-.63-3.15zm-5.614 1.028.529 2.643-24.915 24.915-1.586-1.586zm-16.046 8.998c1.178.049 2.313.338 3.345.875l-3.858 3.858c-.125-1.273-.321-2.54-.586-3.791zm-25.319-7.483.812-18.673c.069-1.61 1.387-2.87 2.997-2.87h14.34c1.61 0 2.928 1.26 2.997 2.87l.813 18.673-7.98 6.529v-10.291c2.937-.91 5-3.654 5-6.781v-1h-16v1c0 3.101 2.029 5.826 5 6.773v10.299zm9.177-5.523-.098-.02c-2.041-.408-3.602-2.018-4-4h11.8c-.398 1.982-1.959 3.592-4 4l-.9.182v13.489c-.596.396-1.404.396-2 0v-13.489zm-7.116 9.794 6.511 5.327c.678.554 1.532.859 2.407.859s1.729-.305 2.407-.859l6.511-5.327 3.429 2.286-12.347 10.583-12.347-10.583zm-13.082 11.186c0-4.293 3.402-7.797 7.65-7.982l1.112.953c-.498 2.35-.762 4.752-.762 7.152v.877h-8zm2 5.586v-2.586h.586l4.515 4.515c-.206.108-.404.231-.589.374l-1.242.967zm1.68 4.508-1.68 1.306v-2.986zm1.734-7.094h2.586v2.586zm12.761 15.865-17.765-2.664c-.237-.036-.41-.236-.41-.476 0-.149.067-.288.187-.38l7.555-5.876c.706-.548 1.743-.612 2.51-.151l8.651 5.19zm-6.895-11.263c-.396-.238-.831-.396-1.28-.488v-6.991c0-1.896.171-3.792.502-5.661l11.498 9.855 11.5-9.857c.244 1.378.393 2.773.458 4.168l-8.958 8.958-2-2-4.414 4.414 3 3h-1.309zm14.72 13.398h-3.764c-.904 0-1.707-.471-2.186-1.22l.797-4.78h2.739l4.376 4.376c-.177.923-.988 1.624-1.962 1.624zm4-2.414-8.586-8.586 1.586-1.586 8.586 8.586zm2.414-3.586 1.586-1.586v1.76c-.235.24-.45.495-.648.765zm11.586 6h-10v-.938c0-2.056 1.233-3.878 3.143-4.642l5.931-2.372c.419-.169.926.169.926.629zm-8-7.414v-2.172l6-6v2.172zm6-3.172v.909l-1.515.606zm-11 3.172-1.586-1.586 24.915-24.915 2.643.529z"/></g></svg>